<?xml version="1.0" encoding="iso-8859-1"?>
<!-- Generator: Adobe Illustrator 19.0.0, SVG Export Plug-In . SVG Version: 6.00 Build 0)  -->
<svg version="1.1" id="Capa_1" xmlns="http://www.w3.org/2000/svg" xmlns:xlink="http://www.w3.org/1999/xlink" x="0px" y="0px"
	 viewBox="0 0 490.667 490.667" style="enable-background:new 0 0 490.667 490.667;" xml:space="preserve">
<g>
	<path style="fill:#455A64;" d="M245.333,0c-5.891,0-10.667,4.776-10.667,10.667v170.667c0,5.891,4.776,10.667,10.667,10.667
		c5.891,0,10.667-4.776,10.667-10.667V10.667C256,4.776,251.224,0,245.333,0z"/>
	<path style="fill:#455A64;" d="M245.333,298.667c-5.891,0-10.667,4.776-10.667,10.667V480c0,5.891,4.776,10.667,10.667,10.667
		c5.891,0,10.667-4.776,10.667-10.667V309.333C256,303.442,251.224,298.667,245.333,298.667z"/>
	<path style="fill:#455A64;" d="M181.333,234.667H10.667C4.776,234.667,0,239.442,0,245.333C0,251.224,4.776,256,10.667,256h170.667
		c5.891,0,10.667-4.776,10.667-10.667C192,239.442,187.224,234.667,181.333,234.667z"/>
	<path style="fill:#455A64;" d="M480,234.667H309.333c-5.891,0-10.667,4.776-10.667,10.667c0,5.891,4.776,10.667,10.667,10.667H480
		c5.891,0,10.667-4.776,10.667-10.667C490.667,239.442,485.891,234.667,480,234.667z"/>
	<circle style="fill:#455A64;" cx="245.333" cy="245.333" r="10.667"/>
</g>
<path d="M245.333,192c-5.891,0-10.667-4.776-10.667-10.667V10.667C234.667,4.776,239.442,0,245.333,0
	C251.224,0,256,4.776,256,10.667v170.667C256,187.224,251.224,192,245.333,192z"/>
<path d="M245.333,490.667c-5.891,0-10.667-4.776-10.667-10.667V309.333c0-5.891,4.776-10.667,10.667-10.667
	c5.891,0,10.667,4.776,10.667,10.667V480C256,485.891,251.224,490.667,245.333,490.667z"/>
<path d="M181.333,256H10.667C4.776,256,0,251.224,0,245.333c0-5.891,4.776-10.667,10.667-10.667h170.667
	c5.891,0,10.667,4.776,10.667,10.667C192,251.224,187.224,256,181.333,256z"/>
<path d="M480,256H309.333c-5.891,0-10.667-4.776-10.667-10.667c0-5.891,4.776-10.667,10.667-10.667H480
	c5.891,0,10.667,4.776,10.667,10.667C490.667,251.224,485.891,256,480,256z"/>
<circle cx="245.333" cy="245.333" r="10.667"/>
<g>
</g>
<g>
</g>
<g>
</g>
<g>
</g>
<g>
</g>
<g>
</g>
<g>
</g>
<g>
</g>
<g>
</g>
<g>
</g>
<g>
</g>
<g>
</g>
<g>
</g>
<g>
</g>
<g>
</g>
</svg>
