# Blender v2.92.0 OBJ File: ''
# www.blender.org
mtllib xd.mtl
o Cube
v 2.000000 0.163659 -1.000000
v 0.000000 0.163659 -1.000000
v 2.000000 0.163659 1.000000
v 0.000000 0.163659 1.000000
v 2.000000 -0.000918 -1.000000
v 0.000000 -0.000918 -1.000000
v 2.000000 -0.000918 1.000000
v 0.000000 -0.000918 1.000000
vt 0.625000 0.500000
vt 0.625000 0.750000
vt 0.875000 0.750000
vt 0.875000 0.500000
vt 0.375000 0.750000
vt 0.375000 1.000000
vt 0.625000 1.000000
vt 0.375000 0.000000
vt 0.375000 0.250000
vt 0.625000 0.250000
vt 0.625000 0.000000
vt 0.125000 0.500000
vt 0.125000 0.750000
vt 0.375000 0.500000
vn 1.0000 0.0000 0.0000
vn 0.0000 0.0000 1.0000
vn -0.0000 -1.0000 0.0000
vn -1.0000 0.0000 0.0000
vn 0.0000 1.0000 0.0000
vn 0.0000 0.0000 -1.0000
usemtl Material
s off
f 1/1/1 3/2/1 7/3/1 5/4/1
f 4/5/2 8/6/2 7/7/2 3/2/2
f 8/8/3 6/9/3 5/10/3 7/11/3
f 6/12/4 8/13/4 4/5/4 2/14/4
f 2/14/5 4/5/5 3/2/5 1/1/5
f 6/9/6 2/14/6 1/1/6 5/10/6
o Cube.001
v 1.898971 2.000000 -1.000000
v 1.898971 0.000000 -1.000000
v 1.898971 2.000000 1.000000
v 1.898971 0.000000 1.000000
v 2.063548 2.000000 -1.000000
v 2.063548 0.000000 -1.000000
v 2.063548 2.000000 1.000000
v 2.063548 0.000000 1.000000
vt 0.625000 0.500000
vt 0.625000 0.750000
vt 0.875000 0.750000
vt 0.875000 0.500000
vt 0.375000 0.750000
vt 0.375000 1.000000
vt 0.625000 1.000000
vt 0.375000 0.000000
vt 0.375000 0.250000
vt 0.625000 0.250000
vt 0.625000 0.000000
vt 0.125000 0.500000
vt 0.125000 0.750000
vt 0.375000 0.500000
vn 0.0000 1.0000 0.0000
vn 0.0000 0.0000 1.0000
vn 1.0000 0.0000 0.0000
vn 0.0000 -1.0000 0.0000
vn -1.0000 0.0000 0.0000
vn 0.0000 0.0000 -1.0000
usemtl Material.001
s off
f 9/15/7 11/16/7 15/17/7 13/18/7
f 12/19/8 16/20/8 15/21/8 11/16/8
f 16/22/9 14/23/9 13/24/9 15/25/9
f 14/26/10 16/27/10 12/19/10 10/28/10
f 10/28/11 12/19/11 11/16/11 9/15/11
f 14/23/12 10/28/12 9/15/12 13/24/12
o Cube.003
v 2.000000 2.000000 -0.999085
v 2.000000 0.000000 -0.999085
v 0.000000 2.000000 -0.999085
v 0.000000 0.000000 -0.999085
v 2.000000 2.000000 -0.834508
v 2.000000 0.000000 -0.834508
v 0.000000 2.000000 -0.834508
v 0.000000 0.000000 -0.834508
vt 0.625000 0.500000
vt 0.625000 0.750000
vt 0.875000 0.750000
vt 0.875000 0.500000
vt 0.375000 0.750000
vt 0.375000 1.000000
vt 0.625000 1.000000
vt 0.375000 0.000000
vt 0.375000 0.250000
vt 0.625000 0.250000
vt 0.625000 0.000000
vt 0.125000 0.500000
vt 0.125000 0.750000
vt 0.375000 0.500000
vn 0.0000 1.0000 0.0000
vn -1.0000 0.0000 0.0000
vn -0.0000 0.0000 1.0000
vn 0.0000 -1.0000 0.0000
vn 0.0000 0.0000 -1.0000
vn 1.0000 0.0000 0.0000
usemtl Material.003
s off
f 17/29/13 19/30/13 23/31/13 21/32/13
f 20/33/14 24/34/14 23/35/14 19/30/14
f 24/36/15 22/37/15 21/38/15 23/39/15
f 22/40/16 24/41/16 20/33/16 18/42/16
f 18/42/17 20/33/17 19/30/17 17/29/17
f 22/37/18 18/42/18 17/29/18 21/38/18
o Cube.002
v 2.000000 2.000000 0.835530
v 2.000000 0.000000 0.835530
v 0.000000 2.000000 0.835530
v 0.000000 0.000000 0.835530
v 2.000000 2.000000 1.000107
v 2.000000 0.000000 1.000107
v 0.000000 2.000000 1.000107
v 0.000000 0.000000 1.000107
vt 0.625000 0.500000
vt 0.625000 0.750000
vt 0.875000 0.750000
vt 0.875000 0.500000
vt 0.375000 0.750000
vt 0.375000 1.000000
vt 0.625000 1.000000
vt 0.375000 0.000000
vt 0.375000 0.250000
vt 0.625000 0.250000
vt 0.625000 0.000000
vt 0.125000 0.500000
vt 0.125000 0.750000
vt 0.375000 0.500000
vn 0.0000 1.0000 0.0000
vn -1.0000 0.0000 0.0000
vn 0.0000 0.0000 1.0000
vn 0.0000 -1.0000 0.0000
vn 0.0000 0.0000 -1.0000
vn 1.0000 0.0000 0.0000
usemtl Material.002
s off
f 25/43/19 27/44/19 31/45/19 29/46/19
f 28/47/20 32/48/20 31/49/20 27/44/20
f 32/50/21 30/51/21 29/52/21 31/53/21
f 30/54/22 32/55/22 28/47/22 26/56/22
f 26/56/23 28/47/23 27/44/23 25/43/23
f 30/51/24 26/56/24 25/43/24 29/52/24
o Cube.004
v -0.082289 2.000000 -1.000000
v -0.082289 0.000000 -1.000000
v -0.082289 2.000000 1.000000
v -0.082289 0.000000 1.000000
v 0.082289 2.000000 -1.000000
v 0.082289 0.000000 -1.000000
v 0.082289 2.000000 1.000000
v 0.082289 0.000000 1.000000
vt 0.625000 0.500000
vt 0.625000 0.750000
vt 0.875000 0.750000
vt 0.875000 0.500000
vt 0.375000 0.750000
vt 0.375000 1.000000
vt 0.625000 1.000000
vt 0.375000 0.000000
vt 0.375000 0.250000
vt 0.625000 0.250000
vt 0.625000 0.000000
vt 0.125000 0.500000
vt 0.125000 0.750000
vt 0.375000 0.500000
vn 0.0000 1.0000 0.0000
vn 0.0000 0.0000 1.0000
vn 1.0000 0.0000 0.0000
vn 0.0000 -1.0000 0.0000
vn -1.0000 0.0000 0.0000
vn 0.0000 0.0000 -1.0000
usemtl Material.004
s off
f 33/57/25 35/58/25 39/59/25 37/60/25
f 36/61/26 40/62/26 39/63/26 35/58/26
f 40/64/27 38/65/27 37/66/27 39/67/27
f 38/68/28 40/69/28 36/61/28 34/70/28
f 34/70/29 36/61/29 35/58/29 33/57/29
f 38/65/30 34/70/30 33/57/30 37/66/30
